<!DOCTYPE svg PUBLIC "-//W3C//DTD SVG 1.1//EN" "http://www.w3.org/Graphics/SVG/1.1/DTD/svg11.dtd">
<!-- Uploaded to: SVG Repo, www.svgrepo.com, Transformed by: SVG Repo Mixer Tools -->
<svg fill="#ffffff" version="1.1" id="Layer_1" xmlns="http://www.w3.org/2000/svg" xmlns:xlink="http://www.w3.org/1999/xlink" viewBox="0 0 512 512" xml:space="preserve" width="800px" height="800px" stroke="#ffffff">
<g id="SVGRepo_bgCarrier" stroke-width="0"/>
<g id="SVGRepo_tracerCarrier" stroke-linecap="round" stroke-linejoin="round"/>
<g id="SVGRepo_iconCarrier"> <g> <g> <rect x="240.62" y="4.854" width="30.754" height="77.906"/> </g> </g> <g> <g> <rect x="143.372" y="45.132" transform="matrix(0.7071 -0.7071 0.7071 0.7071 -12.9607 136.8806)" width="30.754" height="77.905"/> </g> </g> <g> <g> <rect x="79.52" y="165.959" width="77.907" height="30.754"/> </g> </g> <g> <g> <rect x="354.574" y="165.959" width="77.906" height="30.754"/> </g> </g> <g> <g> <rect x="314.296" y="68.717" transform="matrix(0.7071 -0.7071 0.7071 0.7071 44.0012 274.4153)" width="77.906" height="30.754"/> </g> </g> <g> <g> <polygon points="476.612,451.77 35.388,451.77 0,507.146 17.143,507.146 502.374,507.146 512,507.146 "/> </g> </g> <g> <g> <polygon points="366.531,279.51 145.469,279.51 110.081,334.886 401.919,334.886 "/> </g> </g> <g> <g> <polygon points="421.572,365.64 90.428,365.64 55.041,421.016 456.959,421.016 "/> </g> </g> <g> <g> <polygon points="311.491,193.381 200.509,193.381 165.122,248.756 346.878,248.756 "/> </g> </g> <g> <g> <polygon points="256.45,107.251 255.55,107.251 220.162,162.627 291.838,162.627 "/> </g> </g> </g>
</svg>